<?xml version="1.0" encoding="UTF-8"?>
<svg xmlns="http://www.w3.org/2000/svg" xmlns:xlink="http://www.w3.org/1999/xlink"
     width="330.0" height="330.0" viewBox="-165.0 -165.0 330.0 330.0">
<defs>
<style type="text/css">
.l2d0 {stroke: rgb(42, 42, 255); fill: rgb(42, 42, 255); fill-opacity: 0.5;}
.l1d0 {stroke: rgb(21, 255, 21); fill: rgb(21, 255, 21); fill-opacity: 0.5;}
.l0d0 {stroke: rgb(255, 0, 0); fill: rgb(255, 0, 0); fill-opacity: 0.5;}
</style>
</defs>
<rect x="-165.0" y="-165.0" width="330.0" height="330.0" fill="#222" stroke="none"/>
<g id="check pcb" transform="scale(1 -1)">
<polygon class="l0d0" points="150.0,-150.0 150.0,150.0 -150.0,150.0 -150.0,103.53999999999999 -96.46000000000001,103.53999999999999 -89.39,110.61 110.61,-89.39 103.53999999999999,-96.46000000000001 -96.46000000000001,103.53999999999999 -150.0,103.53999999999999 -150.0,99.96000000000001 -100.03999999999999,99.96000000000001 -99.96000000000001,100.03999999999999 100.03999999999999,-99.96000000000001 99.96000000000001,-100.03999999999999 -100.03999999999999,99.96000000000001 -150.0,99.96000000000001 -150.0,89.39 -110.61,89.39 -103.53999999999999,96.46000000000001 96.46000000000001,-103.53999999999999 89.39,-110.61 -110.61,89.39 -150.0,89.39 -150.0,-150.0"/>
<polygon class="l1d0" points="150.0,150.0 -150.0,150.0 -150.0,-150.0 150.0,-150.0"/>
<polygon class="l2d0" points="150.0,150.0 -150.0,150.0 -150.0,-150.0 150.0,-150.0"/>
</g>
</svg>