<?xml version="1.0" encoding="UTF-8"?>
<svg xmlns="http://www.w3.org/2000/svg" xmlns:xlink="http://www.w3.org/1999/xlink"
     width="308000.0" height="108000.0" viewBox="-154000.0 -54000.0 308000.0 108000.0">
<defs>
<style type="text/css">
.l3d0 {stroke: rgb(255, 255, 64); fill: rgb(255, 255, 64); fill-opacity: 0.5;}
.l2d0 {stroke: rgb(42, 42, 255); fill: rgb(42, 42, 255); fill-opacity: 0.5;}
.l1d0 {stroke: rgb(21, 255, 21); fill: rgb(21, 255, 21); fill-opacity: 0.5;}
.l0d0 {stroke: rgb(255, 0, 0); fill: rgb(255, 0, 0); fill-opacity: 0.5;}
</style>
</defs>
<rect x="-154000.0" y="-54000.0" width="308000.0" height="108000.0" fill="#222" stroke="none"/>
<g id="2-pin sample holder" transform="scale(1 -1)">
<polygon class="l0d0" points="35190.0,-38050.0 35760.0,-36170.0 36690.0,-34440.0 37930.0,-32930.0 39440.0,-31690.0 41170.0,-30760.0 43050.0,-30190.0 45000.0,-30000.0 46950.0,-30190.0 48830.0,-30760.0 50560.0,-31690.0 52070.0,-32930.0 53280.0,-34400.0 62600.0,-34400.0 62600.0,-25400.0 62810.0,-23490.0 63410.0,-21660.0 64400.0,-20010.0 65710.0,-18600.0 67290.0,-17500.0 69060.0,-16760.0 70960.0,-16420.0 72880.0,-16490.0 74750.0,-16970.0 76470.0,-17830.0 77960.0,-19040.0 80330.0,-21140.0 82930.0,-22950.0 85730.0,-24450.0 88680.0,-25600.0 91750.0,-26400.0 94890.0,-26840.0 98060.0,-26900.0 101210.0,-26590.0 104310.0,-25910.0 107300.0,-24870.0 110150.0,-23490.0 112820.0,-21780.0 115270.0,-19770.0 117470.0,-17480.0 119380.0,-14960.0 120990.0,-12220.0 122260.0,-9320.0 123180.0,-6280.0 123730.0,-3160.0 123920.0,0.0 123730.0,3160.0 123180.0,6280.0 122260.0,9320.0 120990.0,12220.0 119380.0,14960.0 117470.0,17480.0 115270.0,19770.0 112820.0,21780.0 110150.0,23490.0 107300.0,24870.0 104310.0,25910.0 101210.0,26590.0 98060.0,26900.0 94890.0,26840.0 91750.0,26400.0 88680.0,25600.0 85730.0,24450.0 82930.0,22950.0 80330.0,21140.0 77960.0,19040.0 76470.0,17830.0 74750.0,16970.0 72880.0,16490.0 70960.0,16420.0 69060.0,16760.0 67290.0,17500.0 65710.0,18600.0 64400.0,20010.0 63410.0,21660.0 62810.0,23490.0 62600.0,25400.0 62600.0,34400.0 131400.0,34400.0 131400.0,-34400.0 62600.0,-34400.0 53280.0,-34400.0 53310.0,-34440.0 54240.0,-36170.0 54810.0,-38050.0 55000.0,-40000.0 140000.0,-40000.0 140000.0,40000.0 55000.0,40000.0 54810.0,38050.0 54240.0,36170.0 53310.0,34440.0 52070.0,32930.0 50560.0,31690.0 48830.0,30760.0 46950.0,30190.0 45000.0,30000.0 43050.0,30190.0 41170.0,30760.0 39440.0,31690.0 37930.0,32930.0 36690.0,34440.0 35760.0,36170.0 35190.0,38050.0 35000.0,40000.0 -35000.0,40000.0 -35190.0,38050.0 -35760.0,36170.0 -36690.0,34440.0 -37930.0,32930.0 -39440.0,31690.0 -41170.0,30760.0 -43050.0,30190.0 -45000.0,30000.0 -46950.0,30190.0 -48830.0,30760.0 -50560.0,31690.0 -52070.0,32930.0 -53310.0,34440.0 -54240.0,36170.0 -54810.0,38050.0 -55000.0,40000.0 -140000.0,40000.0 -140000.0,-34400.0 -131400.0,-34400.0 -131400.0,34400.0 -62600.0,34400.0 -62600.0,25400.0 -62810.0,23490.0 -63410.0,21660.0 -64400.0,20010.0 -65710.0,18600.0 -67290.0,17500.0 -69060.0,16760.0 -70960.0,16420.0 -72880.0,16490.0 -74750.0,16970.0 -76470.0,17830.0 -77960.0,19040.0 -80330.0,21140.0 -82930.0,22950.0 -85730.0,24450.0 -88680.0,25600.0 -91750.0,26400.0 -94890.0,26840.0 -98060.0,26900.0 -101210.0,26590.0 -104310.0,25910.0 -107300.0,24870.0 -110150.0,23490.0 -112820.0,21780.0 -115270.0,19770.0 -117470.0,17480.0 -118900.0,15600.0 -119380.0,14960.0 -120990.0,12220.0 -122260.0,9320.0 -123180.0,6280.0 -123410.0,5000.0 -123730.0,3160.0 -123920.0,0.0 -108250.0,0.0 -108060.0,2070.0 -107490.0,4060.0 -106560.0,5920.0 -105310.0,7580.0 -103780.0,8980.0 -102010.0,10070.0 -100080.0,10820.0 -98040.0,11200.0 -95960.0,11200.0 -93920.0,10820.0 -91990.0,10070.0 -90220.0,8980.0 -89480.0,8300.0 -34500.0,8300.0 -34500.0,8250.0 -33630.0,8250.0 -31940.0,7890.0 -30350.0,7190.0 -28950.0,6170.0 -27790.0,4880.0 -26920.0,3380.0 -26380.0,1730.0 -26270.0,680.0 -26200.0,0.0 -26380.0,-1730.0 -26920.0,-3380.0 -27790.0,-4880.0 -28950.0,-6170.0 -30350.0,-7190.0 -31940.0,-7890.0 -33630.0,-8250.0 -34500.0,-8250.0 -34500.0,-8300.0 -89480.0,-8300.0 -90220.0,-8980.0 -91990.0,-10070.0 -93920.0,-10820.0 -95960.0,-11200.0 -98040.0,-11200.0 -100080.0,-10820.0 -102010.0,-10070.0 -103780.0,-8980.0 -105310.0,-7580.0 -106560.0,-5920.0 -107490.0,-4060.0 -108060.0,-2070.0 -108250.0,0.0 -123920.0,0.0 -123730.0,-3160.0 -123180.0,-6280.0 -122260.0,-9320.0 -120990.0,-12220.0 -119380.0,-14960.0 -117580.0,-17330.0 -117470.0,-17480.0 -115270.0,-19770.0 -112820.0,-21780.0 -110150.0,-23490.0 -107300.0,-24870.0 -104310.0,-25910.0 -101210.0,-26590.0 -98060.0,-26900.0 -94890.0,-26840.0 -91750.0,-26400.0 -88680.0,-25600.0 -85730.0,-24450.0 -82930.0,-22950.0 -80330.0,-21140.0 -77960.0,-19040.0 -76470.0,-17830.0 -74750.0,-16970.0 -72880.0,-16490.0 -70960.0,-16420.0 -69060.0,-16760.0 -67700.0,-17330.0 -24420.0,-17330.0 -24420.0,-15600.0 -24050.0,-13910.0 -23320.0,-12340.0 -23000.0,-11920.0 -23000.0,11920.0 -23320.0,12340.0 -24050.0,13910.0 -24420.0,15600.0 -24420.0,17330.0 -24050.0,19020.0 -23320.0,20590.0 -22270.0,21970.0 -20950.0,23090.0 -19430.0,23900.0 -17760.0,24360.0 -16030.0,24450.0 -14320.0,24170.0 -12720.0,23530.0 -11940.0,23000.0 11860.0,23000.0 11970.0,23090.0 13500.0,23900.0 15170.0,24360.0 16900.0,24450.0 18600.0,24170.0 20210.0,23530.0 21640.0,22560.0 22830.0,21310.0 23730.0,19820.0 24280.0,18180.0 24460.0,16460.0 24280.0,14740.0 23730.0,13110.0 23000.0,11900.0 23000.0,0.0 26200.0,0.0 26380.0,1730.0 26920.0,3380.0 27790.0,4880.0 28950.0,6170.0 30350.0,7190.0 31940.0,7890.0 33630.0,8250.0 34500.0,8250.0 34500.0,8300.0 89480.0,8300.0 90220.0,8980.0 91990.0,10070.0 93920.0,10820.0 95960.0,11200.0 98040.0,11200.0 100080.0,10820.0 102010.0,10070.0 103780.0,8980.0 105310.0,7580.0 106560.0,5920.0 107490.0,4060.0 108060.0,2070.0 108250.0,0.0 108060.0,-2070.0 107490.0,-4060.0 106560.0,-5920.0 105310.0,-7580.0 103780.0,-8980.0 102010.0,-10070.0 100080.0,-10820.0 98040.0,-11200.0 95960.0,-11200.0 93920.0,-10820.0 91990.0,-10070.0 90220.0,-8980.0 89480.0,-8300.0 34500.0,-8300.0 34500.0,-8250.0 33630.0,-8250.0 31940.0,-7890.0 30350.0,-7190.0 28950.0,-6170.0 27790.0,-4880.0 26920.0,-3380.0 26380.0,-1730.0 26270.0,-680.0 26200.0,0.0 23000.0,0.0 23000.0,-11900.0 23730.0,-13110.0 24280.0,-14740.0 24460.0,-16460.0 24280.0,-18180.0 23730.0,-19820.0 22830.0,-21310.0 21640.0,-22560.0 20210.0,-23530.0 18600.0,-24170.0 16900.0,-24450.0 15170.0,-24360.0 13500.0,-23900.0 11970.0,-23090.0 11860.0,-23000.0 -11940.0,-23000.0 -12720.0,-23530.0 -14320.0,-24170.0 -16030.0,-24450.0 -17760.0,-24360.0 -19430.0,-23900.0 -20950.0,-23090.0 -22270.0,-21970.0 -23320.0,-20590.0 -24050.0,-19020.0 -24420.0,-17330.0 -67700.0,-17330.0 -67290.0,-17500.0 -65710.0,-18600.0 -64400.0,-20010.0 -63410.0,-21660.0 -62810.0,-23490.0 -62810.0,-23530.0 -62600.0,-25400.0 -62600.0,-34400.0 -131400.0,-34400.0 -140000.0,-34400.0 -140000.0,-40000.0 -55000.0,-40000.0 -54810.0,-38050.0 -54240.0,-36170.0 -53310.0,-34440.0 -52070.0,-32930.0 -50560.0,-31690.0 -48830.0,-30760.0 -46950.0,-30190.0 -45000.0,-30000.0 -43050.0,-30190.0 -41170.0,-30760.0 -39440.0,-31690.0 -37930.0,-32930.0 -36690.0,-34440.0 -35760.0,-36170.0 -35190.0,-38050.0 -35000.0,-40000.0 35000.0,-40000.0"/>
<polygon class="l0d0" points="129400.0,-32400.0 129400.0,32400.0 64600.0,32400.0 64600.0,25400.0 66600.0,25400.0 66790.0,26750.0 67330.0,28000.0 68190.0,29050.0 69300.0,29840.0 70580.0,30300.0 71940.0,30390.0 73270.0,30110.0 74480.0,29480.0 75480.0,28560.0 76190.0,27390.0 76550.0,26080.0 76550.0,24720.0 76190.0,23410.0 75480.0,22240.0 74480.0,21320.0 73270.0,20690.0 71940.0,20410.0 70580.0,20500.0 69300.0,20960.0 68190.0,21750.0 67330.0,22800.0 66790.0,24050.0 66600.0,25400.0 64600.0,25400.0 64760.0,23910.0 65230.0,22490.0 66000.0,21210.0 67020.0,20110.0 68250.0,19260.0 69630.0,18680.0 71100.0,18420.0 72600.0,18470.0 74050.0,18840.0 75380.0,19510.0 76550.0,20450.0 79100.0,22710.0 81890.0,24660.0 84890.0,26260.0 88060.0,27510.0 91360.0,28370.0 94730.0,28830.0 98140.0,28900.0 101520.0,28560.0 104850.0,27840.0 108070.0,26720.0 110790.0,25400.0 117400.0,25400.0 117590.0,26750.0 118130.0,28000.0 118990.0,29050.0 120100.0,29840.0 121380.0,30300.0 122740.0,30390.0 124070.0,30110.0 125280.0,29480.0 126280.0,28560.0 126990.0,27390.0 127350.0,26080.0 127350.0,24720.0 126990.0,23410.0 126280.0,22240.0 125280.0,21320.0 124070.0,20690.0 122740.0,20410.0 121380.0,20500.0 120100.0,20960.0 118990.0,21750.0 118130.0,22800.0 117590.0,24050.0 117400.0,25400.0 110790.0,25400.0 111130.0,25230.0 114000.0,23400.0 116630.0,21240.0 118990.0,18780.0 121050.0,16070.0 122770.0,13130.0 124130.0,10010.0 125120.0,6750.0 125720.0,3400.0 125920.0,0.0 125720.0,-3400.0 125120.0,-6750.0 124130.0,-10010.0 122770.0,-13130.0 121050.0,-16070.0 118990.0,-18780.0 116630.0,-21240.0 114000.0,-23400.0 111130.0,-25230.0 110780.0,-25400.0 117400.0,-25400.0 117590.0,-24050.0 118130.0,-22800.0 118990.0,-21750.0 120100.0,-20960.0 121380.0,-20500.0 122740.0,-20410.0 124070.0,-20690.0 125280.0,-21320.0 126280.0,-22240.0 126990.0,-23410.0 127350.0,-24720.0 127350.0,-26080.0 126990.0,-27390.0 126280.0,-28560.0 125280.0,-29480.0 124070.0,-30110.0 122740.0,-30390.0 121380.0,-30300.0 120100.0,-29840.0 118990.0,-29050.0 118130.0,-28000.0 117590.0,-26750.0 117400.0,-25400.0 110780.0,-25400.0 108070.0,-26720.0 104850.0,-27840.0 101520.0,-28560.0 98140.0,-28900.0 94730.0,-28830.0 91360.0,-28370.0 88060.0,-27510.0 84890.0,-26260.0 81890.0,-24660.0 79100.0,-22710.0 76550.0,-20450.0 75380.0,-19510.0 74050.0,-18840.0 72600.0,-18470.0 71100.0,-18420.0 69630.0,-18680.0 68250.0,-19260.0 67020.0,-20110.0 66000.0,-21210.0 65230.0,-22490.0 64760.0,-23910.0 64600.0,-25400.0 66600.0,-25400.0 66790.0,-24050.0 67330.0,-22800.0 68190.0,-21750.0 69300.0,-20960.0 70580.0,-20500.0 71940.0,-20410.0 73270.0,-20690.0 74480.0,-21320.0 75480.0,-22240.0 76190.0,-23410.0 76550.0,-24720.0 76550.0,-26080.0 76190.0,-27390.0 75480.0,-28560.0 74480.0,-29480.0 73270.0,-30110.0 71940.0,-30390.0 70580.0,-30300.0 69300.0,-29840.0 68190.0,-29050.0 67330.0,-28000.0 66790.0,-26750.0 66600.0,-25400.0 64600.0,-25400.0 64600.0,-32400.0"/>
<polygon class="l0d0" points="-101550.0,-2630.0 -100710.0,-3710.0 -99630.0,-4550.0 -98360.0,-5070.0 -97000.0,-5250.0 -95640.0,-5070.0 -95470.0,-5000.0 -34500.0,-5000.0 -34500.0,-4970.0 -34160.0,-4990.0 -32830.0,-4710.0 -31620.0,-4080.0 -30620.0,-3160.0 -29910.0,-1990.0 -29550.0,-680.0 -29550.0,680.0 -29910.0,1990.0 -30620.0,3160.0 -31620.0,4080.0 -32830.0,4710.0 -34160.0,4990.0 -34500.0,4970.0 -34500.0,5000.0 -95470.0,5000.0 -95640.0,5070.0 -97000.0,5250.0 -98360.0,5070.0 -98530.0,5000.0 -99630.0,4550.0 -100710.0,3710.0 -101550.0,2630.0 -102070.0,1360.0 -102250.0,0.0 -102170.0,-600.0 -100960.0,-600.0 -100960.0,600.0 -100600.0,1740.0 -99930.0,2720.0 -99000.0,3460.0 -97890.0,3900.0 -96700.0,3990.0 -95540.0,3720.0 -94510.0,3130.0 -93700.0,2250.0 -93180.0,1180.0 -93000.0,0.0 -93180.0,-1180.0 -93700.0,-2250.0 -94510.0,-3130.0 -95540.0,-3720.0 -96700.0,-3990.0 -97890.0,-3900.0 -99000.0,-3460.0 -99930.0,-2720.0 -100600.0,-1740.0 -100960.0,-600.0 -102170.0,-600.0 -102070.0,-1360.0"/>
<polygon class="l0d0" points="29910.0,-1990.0 30620.0,-3160.0 31620.0,-4080.0 32830.0,-4710.0 34160.0,-4990.0 34500.0,-4970.0 34500.0,-5000.0 95470.0,-5000.0 95640.0,-5070.0 97000.0,-5250.0 98360.0,-5070.0 99630.0,-4550.0 100710.0,-3710.0 101550.0,-2630.0 102070.0,-1360.0 102250.0,0.0 102070.0,1360.0 101550.0,2630.0 100710.0,3710.0 99630.0,4550.0 98360.0,5070.0 97000.0,5250.0 95640.0,5070.0 95470.0,5000.0 34500.0,5000.0 34500.0,4970.0 34160.0,4990.0 32830.0,4710.0 31620.0,4080.0 30620.0,3160.0 29910.0,1990.0 29550.0,680.0 29550.0,0.0 93000.0,0.0 93180.0,1180.0 93700.0,2250.0 94510.0,3130.0 95540.0,3720.0 96700.0,3990.0 97890.0,3900.0 99000.0,3460.0 99930.0,2720.0 100600.0,1740.0 100960.0,600.0 100960.0,-600.0 100600.0,-1740.0 99930.0,-2720.0 99000.0,-3460.0 97890.0,-3900.0 96700.0,-3990.0 95540.0,-3720.0 94510.0,-3130.0 93700.0,-2250.0 93180.0,-1180.0 93000.0,0.0 29550.0,0.0 29550.0,-680.0"/>
<polygon class="l0d0" points="-88060.0,-27510.0 -91360.0,-28370.0 -94730.0,-28830.0 -98140.0,-28900.0 -101520.0,-28560.0 -104850.0,-27840.0 -108070.0,-26720.0 -111130.0,-25230.0 -114000.0,-23400.0 -116630.0,-21240.0 -118990.0,-18780.0 -120090.0,-17330.0 -121050.0,-16070.0 -122770.0,-13130.0 -124130.0,-10010.0 -125120.0,-6750.0 -125720.0,-3400.0 -125920.0,0.0 -125720.0,3400.0 -125430.0,5000.0 -125120.0,6750.0 -124130.0,10010.0 -122770.0,13130.0 -121050.0,16070.0 -118990.0,18780.0 -116630.0,21240.0 -114000.0,23400.0 -111130.0,25230.0 -108070.0,26720.0 -104850.0,27840.0 -101520.0,28560.0 -98140.0,28900.0 -94730.0,28830.0 -91360.0,28370.0 -88060.0,27510.0 -84890.0,26260.0 -82000.0,24720.0 -76550.0,24720.0 -76550.0,26080.0 -76190.0,27390.0 -75480.0,28560.0 -74480.0,29480.0 -73270.0,30110.0 -71940.0,30390.0 -70580.0,30300.0 -69300.0,29840.0 -68190.0,29050.0 -67330.0,28000.0 -66790.0,26750.0 -66600.0,25400.0 -66790.0,24050.0 -67330.0,22800.0 -68190.0,21750.0 -69300.0,20960.0 -70580.0,20500.0 -71940.0,20410.0 -73270.0,20690.0 -74480.0,21320.0 -75480.0,22240.0 -76190.0,23410.0 -76550.0,24720.0 -82000.0,24720.0 -81890.0,24660.0 -79100.0,22710.0 -76550.0,20450.0 -75380.0,19510.0 -74050.0,18840.0 -72600.0,18470.0 -71100.0,18420.0 -69630.0,18680.0 -68250.0,19260.0 -67020.0,20110.0 -66000.0,21210.0 -65230.0,22490.0 -64760.0,23910.0 -64600.0,25400.0 -64600.0,32400.0 -129400.0,32400.0 -129400.0,24720.0 -127350.0,24720.0 -127350.0,26080.0 -126990.0,27390.0 -126280.0,28560.0 -125280.0,29480.0 -124070.0,30110.0 -122740.0,30390.0 -121380.0,30300.0 -120100.0,29840.0 -118990.0,29050.0 -118130.0,28000.0 -117590.0,26750.0 -117400.0,25400.0 -117590.0,24050.0 -118130.0,22800.0 -118990.0,21750.0 -120100.0,20960.0 -121380.0,20500.0 -122740.0,20410.0 -124070.0,20690.0 -125280.0,21320.0 -126280.0,22240.0 -126990.0,23410.0 -127350.0,24720.0 -129400.0,24720.0 -129400.0,-26080.0 -127350.0,-26080.0 -127350.0,-24720.0 -126990.0,-23410.0 -126280.0,-22240.0 -125280.0,-21320.0 -124070.0,-20690.0 -122740.0,-20410.0 -121380.0,-20500.0 -120100.0,-20960.0 -118990.0,-21750.0 -118130.0,-22800.0 -117590.0,-24050.0 -117400.0,-25400.0 -117590.0,-26750.0 -118130.0,-28000.0 -118990.0,-29050.0 -120100.0,-29840.0 -121380.0,-30300.0 -122740.0,-30390.0 -124070.0,-30110.0 -125280.0,-29480.0 -126280.0,-28560.0 -126990.0,-27390.0 -127350.0,-26080.0 -129400.0,-26080.0 -129400.0,-32400.0 -64600.0,-32400.0 -64600.0,-25400.0 -64760.0,-23910.0 -65230.0,-22490.0 -66000.0,-21210.0 -67020.0,-20110.0 -68250.0,-19260.0 -69630.0,-18680.0 -71100.0,-18420.0 -72600.0,-18470.0 -74050.0,-18840.0 -75380.0,-19510.0 -76550.0,-20450.0 -79100.0,-22710.0 -81890.0,-24660.0 -84560.0,-26080.0 -76550.0,-26080.0 -76550.0,-24720.0 -76190.0,-23410.0 -75480.0,-22240.0 -74480.0,-21320.0 -73270.0,-20690.0 -71940.0,-20410.0 -70580.0,-20500.0 -69300.0,-20960.0 -68190.0,-21750.0 -67330.0,-22800.0 -66790.0,-24050.0 -66600.0,-25400.0 -66790.0,-26750.0 -67330.0,-28000.0 -68190.0,-29050.0 -69300.0,-29840.0 -70580.0,-30300.0 -71940.0,-30390.0 -73270.0,-30110.0 -74480.0,-29480.0 -75480.0,-28560.0 -76190.0,-27390.0 -76550.0,-26080.0 -84560.0,-26080.0 -84890.0,-26260.0"/>
<polygon class="l1d0" points="35190.0,-38050.0 35760.0,-36170.0 36690.0,-34440.0 37930.0,-32930.0 39440.0,-31690.0 41170.0,-30760.0 43050.0,-30190.0 45000.0,-30000.0 46950.0,-30190.0 48830.0,-30760.0 50560.0,-31690.0 52070.0,-32930.0 53310.0,-34440.0 54240.0,-36170.0 54810.0,-38050.0 55000.0,-40000.0 140000.0,-40000.0 140000.0,40000.0 55000.0,40000.0 54810.0,38050.0 54240.0,36170.0 53310.0,34440.0 52070.0,32930.0 50560.0,31690.0 48830.0,30760.0 46950.0,30190.0 45000.0,30000.0 43050.0,30190.0 41170.0,30760.0 39440.0,31690.0 37930.0,32930.0 36690.0,34440.0 35760.0,36170.0 35190.0,38050.0 35000.0,40000.0 -35000.0,40000.0 -35190.0,38050.0 -35760.0,36170.0 -36690.0,34440.0 -37930.0,32930.0 -39440.0,31690.0 -41170.0,30760.0 -43050.0,30190.0 -45000.0,30000.0 -46950.0,30190.0 -48830.0,30760.0 -50560.0,31690.0 -52070.0,32930.0 -53310.0,34440.0 -54240.0,36170.0 -54810.0,38050.0 -55000.0,40000.0 -140000.0,40000.0 -140000.0,24720.0 -127350.0,24720.0 -127350.0,26080.0 -126990.0,27390.0 -126280.0,28560.0 -125280.0,29480.0 -124070.0,30110.0 -122740.0,30390.0 -121380.0,30300.0 -120100.0,29840.0 -118990.0,29050.0 -118130.0,28000.0 -117590.0,26750.0 -117400.0,25400.0 -117500.0,24720.0 -76550.0,24720.0 -76550.0,26080.0 -76190.0,27390.0 -75480.0,28560.0 -74480.0,29480.0 -73270.0,30110.0 -71940.0,30390.0 -70580.0,30300.0 -69300.0,29840.0 -68190.0,29050.0 -67330.0,28000.0 -66790.0,26750.0 -66600.0,25400.0 66600.0,25400.0 66790.0,26750.0 67330.0,28000.0 68190.0,29050.0 69300.0,29840.0 70580.0,30300.0 71940.0,30390.0 73270.0,30110.0 74480.0,29480.0 75480.0,28560.0 76190.0,27390.0 76550.0,26080.0 76550.0,25400.0 117400.0,25400.0 117590.0,26750.0 118130.0,28000.0 118990.0,29050.0 120100.0,29840.0 121380.0,30300.0 122740.0,30390.0 124070.0,30110.0 125280.0,29480.0 126280.0,28560.0 126990.0,27390.0 127350.0,26080.0 127350.0,24720.0 126990.0,23410.0 126280.0,22240.0 125280.0,21320.0 124070.0,20690.0 122740.0,20410.0 121380.0,20500.0 120100.0,20960.0 118990.0,21750.0 118130.0,22800.0 117590.0,24050.0 117400.0,25400.0 76550.0,25400.0 76550.0,24720.0 76190.0,23410.0 75480.0,22240.0 74480.0,21320.0 73270.0,20690.0 71940.0,20410.0 70580.0,20500.0 69300.0,20960.0 68190.0,21750.0 67330.0,22800.0 66790.0,24050.0 66600.0,25400.0 -66600.0,25400.0 -66790.0,24050.0 -67330.0,22800.0 -68190.0,21750.0 -69300.0,20960.0 -70580.0,20500.0 -71940.0,20410.0 -73270.0,20690.0 -74480.0,21320.0 -75480.0,22240.0 -76190.0,23410.0 -76550.0,24720.0 -117500.0,24720.0 -117590.0,24050.0 -118130.0,22800.0 -118990.0,21750.0 -120100.0,20960.0 -121380.0,20500.0 -122740.0,20410.0 -124070.0,20690.0 -125280.0,21320.0 -126280.0,22240.0 -126990.0,23410.0 -127350.0,24720.0 -140000.0,24720.0 -140000.0,-600.0 -100960.0,-600.0 -100960.0,600.0 -100600.0,1740.0 -99930.0,2720.0 -99000.0,3460.0 -97890.0,3900.0 -96700.0,3990.0 -95540.0,3720.0 -94510.0,3130.0 -93700.0,2250.0 -93180.0,1180.0 -93000.0,0.0 -93180.0,-1180.0 -93700.0,-2250.0 -94510.0,-3130.0 -95540.0,-3720.0 -96700.0,-3990.0 -97890.0,-3900.0 -99000.0,-3460.0 -99930.0,-2720.0 -100600.0,-1740.0 -100960.0,-600.0 -140000.0,-600.0 -140000.0,-17150.0 -21420.0,-17150.0 -21420.0,-15780.0 -21050.0,-14470.0 -20340.0,-13310.0 -20000.0,-12990.0 -20000.0,12990.0 -20340.0,13310.0 -21050.0,14470.0 -21420.0,15780.0 -21420.0,17150.0 -21050.0,18460.0 -20340.0,19620.0 -19350.0,20550.0 -18140.0,21180.0 -16810.0,21450.0 -15450.0,21360.0 -14160.0,20900.0 -13050.0,20120.0 -12950.0,20000.0 12990.0,20000.0 13580.0,20550.0 14790.0,21180.0 16120.0,21450.0 17480.0,21360.0 18760.0,20900.0 19880.0,20120.0 20740.0,19060.0 21280.0,17810.0 21460.0,16460.0 21280.0,15120.0 20740.0,13870.0 20000.0,12960.0 20000.0,0.0 93000.0,0.0 93180.0,1180.0 93700.0,2250.0 94510.0,3130.0 95540.0,3720.0 96700.0,3990.0 97890.0,3900.0 99000.0,3460.0 99930.0,2720.0 100600.0,1740.0 100960.0,600.0 100960.0,-600.0 100600.0,-1740.0 99930.0,-2720.0 99000.0,-3460.0 97890.0,-3900.0 96700.0,-3990.0 95540.0,-3720.0 94510.0,-3130.0 93700.0,-2250.0 93180.0,-1180.0 93000.0,0.0 20000.0,0.0 20000.0,-12960.0 20740.0,-13870.0 21280.0,-15120.0 21460.0,-16460.0 21280.0,-17810.0 20740.0,-19060.0 19880.0,-20120.0 18760.0,-20900.0 17480.0,-21360.0 16120.0,-21450.0 14790.0,-21180.0 13580.0,-20550.0 12990.0,-20000.0 -12950.0,-20000.0 -13050.0,-20120.0 -14160.0,-20900.0 -15450.0,-21360.0 -16810.0,-21450.0 -18140.0,-21180.0 -19350.0,-20550.0 -20340.0,-19620.0 -21050.0,-18460.0 -21420.0,-17150.0 -140000.0,-17150.0 -140000.0,-26080.0 -127350.0,-26080.0 -127350.0,-24720.0 -126990.0,-23410.0 -126280.0,-22240.0 -125280.0,-21320.0 -124070.0,-20690.0 -122740.0,-20410.0 -121380.0,-20500.0 -120100.0,-20960.0 -118990.0,-21750.0 -118130.0,-22800.0 -117590.0,-24050.0 -117400.0,-25400.0 -117500.0,-26080.0 -76550.0,-26080.0 -76550.0,-24720.0 -76190.0,-23410.0 -75480.0,-22240.0 -74480.0,-21320.0 -73270.0,-20690.0 -71940.0,-20410.0 -70580.0,-20500.0 -69300.0,-20960.0 -68190.0,-21750.0 -67330.0,-22800.0 -66790.0,-24050.0 -66600.0,-25400.0 66600.0,-25400.0 66790.0,-24050.0 67330.0,-22800.0 68190.0,-21750.0 69300.0,-20960.0 70580.0,-20500.0 71940.0,-20410.0 73270.0,-20690.0 74480.0,-21320.0 75480.0,-22240.0 76190.0,-23410.0 76550.0,-24720.0 76550.0,-25400.0 117400.0,-25400.0 117590.0,-24050.0 118130.0,-22800.0 118990.0,-21750.0 120100.0,-20960.0 121380.0,-20500.0 122740.0,-20410.0 124070.0,-20690.0 125280.0,-21320.0 126280.0,-22240.0 126990.0,-23410.0 127350.0,-24720.0 127350.0,-26080.0 126990.0,-27390.0 126280.0,-28560.0 125280.0,-29480.0 124070.0,-30110.0 122740.0,-30390.0 121380.0,-30300.0 120100.0,-29840.0 118990.0,-29050.0 118130.0,-28000.0 117590.0,-26750.0 117400.0,-25400.0 76550.0,-25400.0 76550.0,-26080.0 76190.0,-27390.0 75480.0,-28560.0 74480.0,-29480.0 73270.0,-30110.0 71940.0,-30390.0 70580.0,-30300.0 69300.0,-29840.0 68190.0,-29050.0 67330.0,-28000.0 66790.0,-26750.0 66600.0,-25400.0 -66600.0,-25400.0 -66790.0,-26750.0 -67330.0,-28000.0 -68190.0,-29050.0 -69300.0,-29840.0 -70580.0,-30300.0 -71940.0,-30390.0 -73270.0,-30110.0 -74480.0,-29480.0 -75480.0,-28560.0 -76190.0,-27390.0 -76550.0,-26080.0 -117500.0,-26080.0 -117590.0,-26750.0 -118130.0,-28000.0 -118990.0,-29050.0 -120100.0,-29840.0 -121380.0,-30300.0 -122740.0,-30390.0 -124070.0,-30110.0 -125280.0,-29480.0 -126280.0,-28560.0 -126990.0,-27390.0 -127350.0,-26080.0 -140000.0,-26080.0 -140000.0,-40000.0 -55000.0,-40000.0 -54810.0,-38050.0 -54240.0,-36170.0 -53310.0,-34440.0 -52070.0,-32930.0 -50560.0,-31690.0 -48830.0,-30760.0 -46950.0,-30190.0 -45000.0,-30000.0 -43050.0,-30190.0 -41170.0,-30760.0 -39440.0,-31690.0 -37930.0,-32930.0 -36690.0,-34440.0 -35760.0,-36170.0 -35190.0,-38050.0 -35000.0,-40000.0 35000.0,-40000.0"/>
<polygon class="l2d0" points="-43050.0,-30190.0 -41170.0,-30760.0 -39440.0,-31690.0 -37930.0,-32930.0 -36690.0,-34440.0 -35760.0,-36170.0 -35190.0,-38050.0 -35000.0,-40000.0 35000.0,-40000.0 35190.0,-38050.0 35760.0,-36170.0 36690.0,-34440.0 37930.0,-32930.0 39440.0,-31690.0 41170.0,-30760.0 43050.0,-30190.0 45000.0,-30000.0 46950.0,-30190.0 48210.0,-30570.0 48830.0,-30760.0 50560.0,-31690.0 52070.0,-32930.0 53310.0,-34440.0 54240.0,-36170.0 54810.0,-38050.0 55000.0,-40000.0 140000.0,-40000.0 140000.0,40000.0 55000.0,40000.0 54810.0,38050.0 54240.0,36170.0 53310.0,34440.0 52070.0,32930.0 50560.0,31690.0 48830.0,30760.0 48210.0,30570.0 47050.0,30220.0 46950.0,30190.0 45000.0,30000.0 43050.0,30190.0 41170.0,30760.0 39440.0,31690.0 37930.0,32930.0 36690.0,34440.0 35760.0,36170.0 35190.0,38050.0 35000.0,40000.0 -35000.0,40000.0 -35190.0,38050.0 -35760.0,36170.0 -36690.0,34440.0 -37930.0,32930.0 -39440.0,31690.0 -41170.0,30760.0 -43050.0,30190.0 -45000.0,30000.0 -45650.0,30060.0 -46950.0,30190.0 -48830.0,30760.0 -50560.0,31690.0 -52070.0,32930.0 -53310.0,34440.0 -54240.0,36170.0 -54810.0,38050.0 -55000.0,40000.0 -140000.0,40000.0 -140000.0,24720.0 -127350.0,24720.0 -127350.0,26080.0 -126990.0,27390.0 -126280.0,28560.0 -125280.0,29480.0 -124070.0,30110.0 -122740.0,30390.0 -121380.0,30300.0 -120100.0,29840.0 -118990.0,29050.0 -118130.0,28000.0 -117590.0,26750.0 -117400.0,25400.0 -117500.0,24720.0 -76550.0,24720.0 -76550.0,26080.0 -76190.0,27390.0 -75480.0,28560.0 -74480.0,29480.0 -73270.0,30110.0 -71940.0,30390.0 -70580.0,30300.0 -69300.0,29840.0 -68190.0,29050.0 -67330.0,28000.0 -66790.0,26750.0 -66600.0,25400.0 66600.0,25400.0 66790.0,26750.0 67330.0,28000.0 68190.0,29050.0 69300.0,29840.0 70580.0,30300.0 71940.0,30390.0 73270.0,30110.0 74480.0,29480.0 75480.0,28560.0 76190.0,27390.0 76550.0,26080.0 76550.0,25400.0 117400.0,25400.0 117590.0,26750.0 118130.0,28000.0 118990.0,29050.0 120100.0,29840.0 121380.0,30300.0 122740.0,30390.0 124070.0,30110.0 125280.0,29480.0 126280.0,28560.0 126990.0,27390.0 127350.0,26080.0 127350.0,24720.0 126990.0,23410.0 126280.0,22240.0 125280.0,21320.0 124070.0,20690.0 122740.0,20410.0 121380.0,20500.0 120100.0,20960.0 118990.0,21750.0 118130.0,22800.0 117590.0,24050.0 117400.0,25400.0 76550.0,25400.0 76550.0,24720.0 76190.0,23410.0 75480.0,22240.0 74480.0,21320.0 73270.0,20690.0 71940.0,20410.0 70580.0,20500.0 69300.0,20960.0 68190.0,21750.0 67330.0,22800.0 66790.0,24050.0 66600.0,25400.0 -66600.0,25400.0 -66790.0,24050.0 -67330.0,22800.0 -68190.0,21750.0 -69300.0,20960.0 -70580.0,20500.0 -71940.0,20410.0 -73270.0,20690.0 -74480.0,21320.0 -75480.0,22240.0 -76190.0,23410.0 -76550.0,24720.0 -117500.0,24720.0 -117590.0,24050.0 -118130.0,22800.0 -118990.0,21750.0 -120100.0,20960.0 -121380.0,20500.0 -122740.0,20410.0 -124070.0,20690.0 -125280.0,21320.0 -126280.0,22240.0 -126990.0,23410.0 -127350.0,24720.0 -140000.0,24720.0 -140000.0,0.0 -111550.0,0.0 -111350.0,2390.0 -110760.0,4720.0 -109800.0,6930.0 -108480.0,8940.0 -106850.0,10700.0 -104960.0,12180.0 -102840.0,13320.0 -100570.0,14100.0 -98200.0,14500.0 -95800.0,14500.0 -93430.0,14100.0 -91160.0,13320.0 -89040.0,12180.0 -87150.0,10700.0 -85520.0,8940.0 -84200.0,6930.0 -83240.0,4720.0 -82650.0,2390.0 -82450.0,0.0 -49800.0,0.0 -49620.0,1730.0 -49080.0,3380.0 -48210.0,4880.0 -47050.0,6170.0 -45650.0,7190.0 -44060.0,7890.0 -42370.0,8250.0 -41500.0,8250.0 -41500.0,8300.0 -25000.0,8300.0 -25000.0,15000.0 -24990.0,15510.0 -24950.0,16010.0 -24880.0,16510.0 -24800.0,17010.0 -24680.0,17510.0 -24540.0,17990.0 -24380.0,18470.0 -24190.0,18940.0 -23980.0,19400.0 -23740.0,19850.0 -23490.0,20290.0 -23390.0,20440.0 -23320.0,20590.0 -22270.0,21970.0 -20950.0,23090.0 -20650.0,23250.0 -20290.0,23490.0 -19850.0,23740.0 -19400.0,23980.0 -18940.0,24190.0 -18470.0,24380.0 -17990.0,24540.0 -17510.0,24680.0 -17010.0,24800.0 -16510.0,24880.0 -16010.0,24950.0 -15510.0,24990.0 -15000.0,25000.0 15000.0,25000.0 15510.0,24990.0 16010.0,24950.0 16510.0,24880.0 17010.0,24800.0 17510.0,24680.0 17990.0,24540.0 18470.0,24380.0 18940.0,24190.0 19400.0,23980.0 19850.0,23740.0 20290.0,23490.0 20710.0,23210.0 21120.0,22910.0 21640.0,22560.0 22830.0,21310.0 23110.0,20850.0 23210.0,20710.0 23490.0,20290.0 23740.0,19850.0 23980.0,19400.0 24190.0,18940.0 24380.0,18470.0 24540.0,17990.0 24680.0,17510.0 24800.0,17010.0 24880.0,16510.0 24950.0,16010.0 24990.0,15510.0 25000.0,15000.0 25000.0,8300.0 41500.0,8300.0 41500.0,8250.0 42370.0,8250.0 44060.0,7890.0 45000.0,7480.0 45650.0,7190.0 46950.0,6240.0 47050.0,6170.0 48210.0,4880.0 49080.0,3380.0 49620.0,1730.0 49800.0,0.0 82450.0,0.0 82650.0,2390.0 83240.0,4720.0 84200.0,6930.0 85520.0,8940.0 87150.0,10700.0 89040.0,12180.0 91160.0,13320.0 93430.0,14100.0 95800.0,14500.0 98200.0,14500.0 100570.0,14100.0 102840.0,13320.0 104960.0,12180.0 106850.0,10700.0 108480.0,8940.0 109800.0,6930.0 110760.0,4720.0 111350.0,2390.0 111550.0,0.0 111350.0,-2390.0 110760.0,-4720.0 109800.0,-6930.0 108480.0,-8940.0 106850.0,-10700.0 104960.0,-12180.0 102840.0,-13320.0 100570.0,-14100.0 98200.0,-14500.0 95800.0,-14500.0 93430.0,-14100.0 91160.0,-13320.0 89040.0,-12180.0 87150.0,-10700.0 85520.0,-8940.0 84200.0,-6930.0 83240.0,-4720.0 82650.0,-2390.0 82450.0,0.0 49800.0,0.0 49620.0,-1730.0 49080.0,-3380.0 48210.0,-4880.0 47050.0,-6170.0 46950.0,-6240.0 45650.0,-7190.0 45000.0,-7480.0 44060.0,-7890.0 42370.0,-8250.0 41500.0,-8250.0 41500.0,-8300.0 25000.0,-8300.0 25000.0,-15000.0 24990.0,-15510.0 24950.0,-16010.0 24880.0,-16510.0 24800.0,-17010.0 24680.0,-17510.0 24540.0,-17990.0 24380.0,-18470.0 24190.0,-18940.0 23980.0,-19400.0 23740.0,-19850.0 23490.0,-20290.0 23210.0,-20710.0 23110.0,-20850.0 22830.0,-21310.0 21640.0,-22560.0 21070.0,-22950.0 20710.0,-23210.0 20290.0,-23490.0 19850.0,-23740.0 19400.0,-23980.0 18940.0,-24190.0 18470.0,-24380.0 17990.0,-24540.0 17510.0,-24680.0 17010.0,-24800.0 16510.0,-24880.0 16010.0,-24950.0 15510.0,-24990.0 15000.0,-25000.0 -15000.0,-25000.0 -15510.0,-24990.0 -16010.0,-24950.0 -16510.0,-24880.0 -17010.0,-24800.0 -17510.0,-24680.0 -17990.0,-24540.0 -18470.0,-24380.0 -18940.0,-24190.0 -19400.0,-23980.0 -19850.0,-23740.0 -20290.0,-23490.0 -20650.0,-23250.0 -20950.0,-23090.0 -22270.0,-21970.0 -23320.0,-20590.0 -23390.0,-20440.0 -23490.0,-20290.0 -23740.0,-19850.0 -23980.0,-19400.0 -24190.0,-18940.0 -24380.0,-18470.0 -24540.0,-17990.0 -24680.0,-17510.0 -24800.0,-17010.0 -24880.0,-16510.0 -24950.0,-16010.0 -24990.0,-15510.0 -25000.0,-15000.0 -25000.0,-8300.0 -41500.0,-8300.0 -41500.0,-8250.0 -42370.0,-8250.0 -44060.0,-7890.0 -45650.0,-7190.0 -47050.0,-6170.0 -48210.0,-4880.0 -49080.0,-3380.0 -49620.0,-1730.0 -49800.0,0.0 -82450.0,0.0 -82650.0,-2390.0 -83240.0,-4720.0 -84200.0,-6930.0 -85520.0,-8940.0 -87150.0,-10700.0 -89040.0,-12180.0 -91160.0,-13320.0 -93430.0,-14100.0 -95800.0,-14500.0 -98200.0,-14500.0 -100570.0,-14100.0 -102840.0,-13320.0 -104960.0,-12180.0 -106850.0,-10700.0 -108480.0,-8940.0 -109800.0,-6930.0 -110760.0,-4720.0 -111350.0,-2390.0 -111550.0,0.0 -140000.0,0.0 -140000.0,-26080.0 -127350.0,-26080.0 -127350.0,-24720.0 -126990.0,-23410.0 -126280.0,-22240.0 -125280.0,-21320.0 -124070.0,-20690.0 -122740.0,-20410.0 -121380.0,-20500.0 -120100.0,-20960.0 -118990.0,-21750.0 -118130.0,-22800.0 -117590.0,-24050.0 -117400.0,-25400.0 -117500.0,-26080.0 -76550.0,-26080.0 -76550.0,-24720.0 -76190.0,-23410.0 -75480.0,-22240.0 -74480.0,-21320.0 -73270.0,-20690.0 -71940.0,-20410.0 -70580.0,-20500.0 -69300.0,-20960.0 -68190.0,-21750.0 -67330.0,-22800.0 -66790.0,-24050.0 -66600.0,-25400.0 66600.0,-25400.0 66790.0,-24050.0 67330.0,-22800.0 68190.0,-21750.0 69300.0,-20960.0 70580.0,-20500.0 71940.0,-20410.0 73270.0,-20690.0 74480.0,-21320.0 75480.0,-22240.0 76190.0,-23410.0 76550.0,-24720.0 76550.0,-25400.0 117400.0,-25400.0 117590.0,-24050.0 118130.0,-22800.0 118990.0,-21750.0 120100.0,-20960.0 121380.0,-20500.0 122740.0,-20410.0 124070.0,-20690.0 125280.0,-21320.0 126280.0,-22240.0 126990.0,-23410.0 127350.0,-24720.0 127350.0,-26080.0 126990.0,-27390.0 126280.0,-28560.0 125280.0,-29480.0 124070.0,-30110.0 122740.0,-30390.0 121380.0,-30300.0 120100.0,-29840.0 118990.0,-29050.0 118130.0,-28000.0 117590.0,-26750.0 117400.0,-25400.0 76550.0,-25400.0 76550.0,-26080.0 76190.0,-27390.0 75480.0,-28560.0 74480.0,-29480.0 73270.0,-30110.0 71940.0,-30390.0 70580.0,-30300.0 69300.0,-29840.0 68190.0,-29050.0 67330.0,-28000.0 66790.0,-26750.0 66600.0,-25400.0 -66600.0,-25400.0 -66790.0,-26750.0 -67330.0,-28000.0 -68190.0,-29050.0 -69300.0,-29840.0 -70580.0,-30300.0 -71940.0,-30390.0 -73270.0,-30110.0 -74480.0,-29480.0 -75480.0,-28560.0 -76190.0,-27390.0 -76550.0,-26080.0 -117500.0,-26080.0 -117590.0,-26750.0 -118130.0,-28000.0 -118990.0,-29050.0 -120100.0,-29840.0 -121380.0,-30300.0 -122740.0,-30390.0 -124070.0,-30110.0 -125280.0,-29480.0 -126280.0,-28560.0 -126990.0,-27390.0 -127350.0,-26080.0 -140000.0,-26080.0 -140000.0,-40000.0 -55000.0,-40000.0 -54810.0,-38050.0 -54240.0,-36170.0 -53310.0,-34440.0 -52070.0,-32930.0 -50560.0,-31690.0 -48830.0,-30760.0 -46950.0,-30190.0 -45650.0,-30060.0 -45000.0,-30000.0"/>
<polygon class="l2d0" points="91800.0,-1790.0 92160.0,-2620.0 92660.0,-3380.0 93270.0,-4050.0 93990.0,-4600.0 94790.0,-5040.0 95650.0,-5330.0 96550.0,-5480.0 97450.0,-5480.0 98350.0,-5330.0 99210.0,-5040.0 100010.0,-4600.0 100730.0,-4050.0 101340.0,-3380.0 101840.0,-2620.0 102200.0,-1790.0 102420.0,-910.0 102500.0,0.0 102420.0,910.0 102200.0,1790.0 101840.0,2620.0 101340.0,3380.0 100730.0,4050.0 100010.0,4600.0 99210.0,5040.0 98350.0,5330.0 97450.0,5480.0 96550.0,5480.0 95650.0,5330.0 94790.0,5040.0 93990.0,4600.0 93270.0,4050.0 92660.0,3380.0 92160.0,2620.0 91800.0,1790.0 91580.0,910.0 91500.0,0.0 93000.0,0.0 93180.0,1180.0 93700.0,2250.0 94510.0,3130.0 95540.0,3720.0 96700.0,3990.0 97890.0,3900.0 99000.0,3460.0 99930.0,2720.0 100600.0,1740.0 100960.0,600.0 100960.0,-600.0 100600.0,-1740.0 99930.0,-2720.0 99000.0,-3460.0 97890.0,-3900.0 96700.0,-3990.0 95540.0,-3720.0 94510.0,-3130.0 93700.0,-2250.0 93180.0,-1180.0 93000.0,0.0 91500.0,0.0 91580.0,-910.0"/>
<polygon class="l2d0" points="-102200.0,-1790.0 -101840.0,-2620.0 -101340.0,-3380.0 -100730.0,-4050.0 -100010.0,-4600.0 -99210.0,-5040.0 -98350.0,-5330.0 -97450.0,-5480.0 -96550.0,-5480.0 -95650.0,-5330.0 -94790.0,-5040.0 -93990.0,-4600.0 -93270.0,-4050.0 -92660.0,-3380.0 -92160.0,-2620.0 -91800.0,-1790.0 -91580.0,-910.0 -91500.0,0.0 -91580.0,910.0 -91800.0,1790.0 -92160.0,2620.0 -92660.0,3380.0 -93270.0,4050.0 -93990.0,4600.0 -94790.0,5040.0 -95650.0,5330.0 -96550.0,5480.0 -97450.0,5480.0 -98350.0,5330.0 -99210.0,5040.0 -100010.0,4600.0 -100730.0,4050.0 -101340.0,3380.0 -101840.0,2620.0 -102200.0,1790.0 -102420.0,910.0 -102500.0,0.0 -102440.0,-600.0 -100960.0,-600.0 -100960.0,600.0 -100600.0,1740.0 -99930.0,2720.0 -99000.0,3460.0 -97890.0,3900.0 -96700.0,3990.0 -95540.0,3720.0 -94510.0,3130.0 -93700.0,2250.0 -93180.0,1180.0 -93000.0,0.0 -93180.0,-1180.0 -93700.0,-2250.0 -94510.0,-3130.0 -95540.0,-3720.0 -96700.0,-3990.0 -97890.0,-3900.0 -99000.0,-3460.0 -99930.0,-2720.0 -100600.0,-1740.0 -100960.0,-600.0 -102440.0,-600.0 -102420.0,-910.0"/>
<polygon class="l2d0" points="41500.0,-2470.0 41730.0,-2490.0 42610.0,-2240.0 43350.0,-1680.0 43830.0,-900.0 44000.0,0.0 43830.0,900.0 43350.0,1680.0 42610.0,2240.0 41730.0,2490.0 41500.0,2470.0 41500.0,2500.0 27500.0,2500.0 27500.0,2470.0 26820.0,2400.0 25990.0,2000.0 25370.0,1320.0 25040.0,460.0 25040.0,-460.0 25370.0,-1320.0 25990.0,-2000.0 26820.0,-2400.0 27500.0,-2470.0 27500.0,-2500.0 41500.0,-2500.0"/>
<polygon class="l2d0" points="-27500.0,-2470.0 -26820.0,-2400.0 -25990.0,-2000.0 -25370.0,-1320.0 -25040.0,-460.0 -25040.0,460.0 -25370.0,1320.0 -25990.0,2000.0 -26820.0,2400.0 -27500.0,2470.0 -27500.0,2500.0 -41500.0,2500.0 -41500.0,2470.0 -41730.0,2490.0 -42610.0,2240.0 -43350.0,1680.0 -43830.0,900.0 -44000.0,0.0 -43830.0,-900.0 -43350.0,-1680.0 -42610.0,-2240.0 -41730.0,-2490.0 -41500.0,-2470.0 -41500.0,-2500.0 -27500.0,-2500.0"/>
<polygon class="l3d0" points="-28860.0,27510.0 -28790.0,27510.0 -28750.0,27520.0 -28720.0,27530.0 -28690.0,27530.0 -28650.0,27540.0 -28620.0,27550.0 -28580.0,27560.0 -28520.0,27580.0 -28480.0,27590.0 -28450.0,27600.0 -28420.0,27620.0 -28390.0,27630.0 -28350.0,27650.0 -28320.0,27660.0 -28260.0,27700.0 -28230.0,27710.0 -28080.0,27810.0 -28030.0,27860.0 -28000.0,27880.0 -27880.0,28000.0 -27860.0,28030.0 -27810.0,28080.0 -27710.0,28230.0 -27700.0,28260.0 -27660.0,28320.0 -27650.0,28350.0 -27630.0,28390.0 -27620.0,28420.0 -27600.0,28450.0 -27590.0,28480.0 -27580.0,28520.0 -27560.0,28580.0 -27550.0,28620.0 -27540.0,28650.0 -27530.0,28690.0 -27530.0,28720.0 -27520.0,28750.0 -27510.0,28790.0 -27510.0,28860.0 -27500.0,28890.0 -27500.0,29110.0 -27510.0,29140.0 -27510.0,29210.0 -27520.0,29250.0 -27530.0,29280.0 -27530.0,29310.0 -27540.0,29350.0 -27550.0,29380.0 -27560.0,29420.0 -27580.0,29480.0 -27590.0,29520.0 -27600.0,29550.0 -27620.0,29580.0 -27630.0,29610.0 -27650.0,29650.0 -27660.0,29680.0 -27700.0,29740.0 -27710.0,29770.0 -27810.0,29920.0 -27860.0,29970.0 -27880.0,30000.0 -28000.0,30120.0 -28030.0,30140.0 -28080.0,30190.0 -28230.0,30290.0 -28260.0,30300.0 -28320.0,30340.0 -28350.0,30350.0 -28390.0,30370.0 -28420.0,30380.0 -28450.0,30400.0 -28480.0,30410.0 -28520.0,30420.0 -28580.0,30440.0 -28620.0,30450.0 -28650.0,30460.0 -28690.0,30470.0 -28720.0,30470.0 -28750.0,30480.0 -28790.0,30490.0 -28860.0,30490.0 -28890.0,30500.0 -29110.0,30500.0 -29140.0,30490.0 -29210.0,30490.0 -29250.0,30480.0 -29280.0,30470.0 -29310.0,30470.0 -29350.0,30460.0 -29380.0,30450.0 -29420.0,30440.0 -29480.0,30420.0 -29520.0,30410.0 -29550.0,30400.0 -29580.0,30380.0 -29610.0,30370.0 -29650.0,30350.0 -29680.0,30340.0 -29740.0,30300.0 -29770.0,30290.0 -29920.0,30190.0 -29970.0,30140.0 -30000.0,30120.0 -30120.0,30000.0 -30140.0,29970.0 -30190.0,29920.0 -30290.0,29770.0 -30300.0,29740.0 -30340.0,29680.0 -30350.0,29650.0 -30370.0,29610.0 -30380.0,29580.0 -30400.0,29550.0 -30410.0,29520.0 -30420.0,29480.0 -30440.0,29420.0 -30450.0,29380.0 -30460.0,29350.0 -30470.0,29310.0 -30470.0,29280.0 -30480.0,29250.0 -30490.0,29210.0 -30490.0,29140.0 -30500.0,29110.0 -30500.0,28890.0 -30490.0,28860.0 -30490.0,28790.0 -30480.0,28750.0 -30470.0,28720.0 -30470.0,28690.0 -30460.0,28650.0 -30450.0,28620.0 -30440.0,28580.0 -30420.0,28520.0 -30410.0,28480.0 -30400.0,28450.0 -30380.0,28420.0 -30370.0,28390.0 -30350.0,28350.0 -30340.0,28320.0 -30300.0,28260.0 -30290.0,28230.0 -30190.0,28080.0 -30140.0,28030.0 -30120.0,28000.0 -30000.0,27880.0 -29970.0,27860.0 -29920.0,27810.0 -29770.0,27710.0 -29740.0,27700.0 -29680.0,27660.0 -29650.0,27650.0 -29610.0,27630.0 -29580.0,27620.0 -29550.0,27600.0 -29520.0,27590.0 -29480.0,27580.0 -29420.0,27560.0 -29380.0,27550.0 -29350.0,27540.0 -29310.0,27530.0 -29280.0,27530.0 -29250.0,27520.0 -29210.0,27510.0 -29140.0,27510.0 -29110.0,27500.0 -28890.0,27500.0"/>
<polygon class="l3d0" points="97500.0,18700.0 98020.0,19200.0 98240.0,19880.0 98130.0,20590.0 97690.0,21160.0 97040.0,21470.0 96330.0,21440.0 95710.0,21080.0 95320.0,20470.0 95270.0,19750.0 95550.0,19090.0 96110.0,18640.0 96810.0,18500.0"/>
<polygon class="l3d0" points="-96030.0,18680.0 -95500.0,19170.0 -95260.0,19840.0 -95350.0,20560.0 -95770.0,21140.0 -96410.0,21460.0 -97130.0,21450.0 -97760.0,21100.0 -98160.0,20510.0 -98230.0,19790.0 -97970.0,19120.0 -97420.0,18660.0 -96720.0,18500.0"/>
<polygon class="l3d0" points="103430.0,18120.0 103840.0,18710.0 103930.0,19420.0 103670.0,20100.0 103140.0,20570.0 102440.0,20750.0 101740.0,20580.0 101200.0,20100.0 100950.0,19430.0 101030.0,18720.0 101440.0,18130.0 102070.0,17790.0 102790.0,17790.0"/>
<polygon class="l3d0" points="-101980.0,17820.0 -101370.0,18190.0 -101000.0,18810.0 -100960.0,19520.0 -101260.0,20180.0 -101830.0,20620.0 -102530.0,20740.0 -103220.0,20530.0 -103720.0,20020.0 -103930.0,19330.0 -103800.0,18630.0 -103360.0,18060.0 -102700.0,17770.0"/>
<polygon class="l3d0" points="-90120.0,17950.0 -89690.0,18530.0 -89590.0,19240.0 -89820.0,19920.0 -90350.0,20410.0 -91040.0,20600.0 -91740.0,20450.0 -92290.0,19990.0 -92560.0,19330.0 -92500.0,18610.0 -92110.0,18010.0 -91480.0,17660.0 -90760.0,17640.0"/>
<polygon class="l3d0" points="91570.0,17690.0 92170.0,18070.0 92520.0,18700.0 92550.0,19420.0 92230.0,20060.0 91660.0,20490.0 90950.0,20600.0 90270.0,20360.0 89770.0,19840.0 89580.0,19150.0 89730.0,18450.0 90190.0,17900.0 90850.0,17620.0"/>
<polygon class="l3d0" points="-106840.0,15670.0 -106360.0,16200.0 -106180.0,16900.0 -106340.0,17590.0 -106810.0,18140.0 -107480.0,18400.0 -108190.0,18320.0 -108790.0,17920.0 -109130.0,17290.0 -109140.0,16570.0 -108810.0,15930.0 -108220.0,15510.0 -107510.0,15420.0"/>
<polygon class="l3d0" points="108310.0,15550.0 108870.0,16000.0 109160.0,16660.0 109100.0,17370.0 108730.0,17980.0 108110.0,18350.0 107390.0,18380.0 106740.0,18080.0 106300.0,17510.0 106180.0,16800.0 106400.0,16120.0 106920.0,15620.0 107600.0,15410.0"/>
<polygon class="l3d0" points="86770.0,15410.0 87240.0,15960.0 87400.0,16660.0 87220.0,17350.0 86730.0,17880.0 86060.0,18130.0 85350.0,18030.0 84760.0,17610.0 84440.0,16970.0 84450.0,16260.0 84790.0,15630.0 85390.0,15230.0 86100.0,15150.0"/>
<polygon class="l3d0" points="-85300.0,15260.0 -84730.0,15690.0 -84430.0,16350.0 -84460.0,17060.0 -84820.0,17680.0 -85430.0,18060.0 -86150.0,18120.0 -86810.0,17830.0 -87260.0,17270.0 -87400.0,16570.0 -87190.0,15880.0 -86690.0,15360.0 -86010.0,15140.0"/>
<polygon class="l3d0" points="112920.0,11970.0 113380.0,12520.0 113540.0,13220.0 113350.0,13910.0 112860.0,14440.0 112180.0,14680.0 111470.0,14570.0 110890.0,14150.0 110570.0,13510.0 110590.0,12790.0 110940.0,12160.0 111540.0,11770.0 112260.0,11700.0"/>
<polygon class="l3d0" points="-111460.0,11800.0 -110880.0,12230.0 -110570.0,12880.0 -110600.0,13590.0 -110950.0,14220.0 -111560.0,14600.0 -112270.0,14670.0 -112940.0,14390.0 -113390.0,13830.0 -113540.0,13130.0 -113340.0,12440.0 -112850.0,11920.0 -112170.0,11690.0"/>
<polygon class="l3d0" points="-34470.0,11400.0 -33880.0,11810.0 -33540.0,12440.0 -33540.0,13160.0 -33880.0,13790.0 -34470.0,14200.0 -35180.0,14290.0 -35850.0,14030.0 -36330.0,13500.0 -36500.0,12800.0 -36330.0,12100.0 -35850.0,11570.0 -35180.0,11310.0"/>
<polygon class="l3d0" points="-41470.0,11400.0 -40880.0,11810.0 -40540.0,12440.0 -40540.0,13160.0 -40880.0,13790.0 -41470.0,14200.0 -42180.0,14290.0 -42850.0,14030.0 -43330.0,13500.0 -43500.0,12800.0 -43330.0,12100.0 -42850.0,11570.0 -42180.0,11310.0"/>
<polygon class="l3d0" points="-48470.0,11400.0 -47880.0,11810.0 -47540.0,12440.0 -47540.0,13160.0 -47880.0,13790.0 -48470.0,14200.0 -49180.0,14290.0 -49850.0,14030.0 -50330.0,13500.0 -50500.0,12800.0 -50330.0,12100.0 -49850.0,11570.0 -49180.0,11310.0"/>
<polygon class="l3d0" points="-55650.0,11380.0 -55470.0,11400.0 -55320.0,11500.0 -55150.0,11570.0 -55020.0,11710.0 -54880.0,11810.0 -54800.0,11950.0 -54670.0,12100.0 -54630.0,12280.0 -54540.0,12440.0 -54540.0,12640.0 -54500.0,12800.0 -54540.0,12960.0 -54540.0,13160.0 -54630.0,13320.0 -54670.0,13500.0 -54800.0,13650.0 -54880.0,13790.0 -55020.0,13890.0 -55150.0,14030.0 -55320.0,14100.0 -55470.0,14200.0 -55650.0,14220.0 -55820.0,14290.0 -56000.0,14270.0 -56180.0,14290.0 -56350.0,14220.0 -56530.0,14200.0 -56680.0,14100.0 -56850.0,14030.0 -56980.0,13890.0 -57120.0,13790.0 -57200.0,13650.0 -57330.0,13500.0 -57370.0,13320.0 -57460.0,13160.0 -57460.0,12960.0 -57500.0,12800.0 -57460.0,12640.0 -57460.0,12440.0 -57370.0,12280.0 -57330.0,12100.0 -57200.0,11950.0 -57120.0,11810.0 -56980.0,11710.0 -56850.0,11570.0 -56680.0,11500.0 -56530.0,11400.0 -56350.0,11380.0 -56180.0,11310.0 -56000.0,11330.0 -55820.0,11310.0"/>
<polygon class="l3d0" points="42850.0,11570.0 43330.0,12100.0 43500.0,12800.0 43330.0,13500.0 42850.0,14030.0 42180.0,14290.0 41470.0,14200.0 40880.0,13790.0 40540.0,13160.0 40540.0,12440.0 40880.0,11810.0 41470.0,11400.0 42180.0,11310.0"/>
<polygon class="l3d0" points="49850.0,11570.0 50330.0,12100.0 50500.0,12800.0 50330.0,13500.0 49850.0,14030.0 49180.0,14290.0 48470.0,14200.0 47880.0,13790.0 47540.0,13160.0 47540.0,12440.0 47880.0,11810.0 48470.0,11400.0 49180.0,11310.0"/>
<polygon class="l3d0" points="56850.0,11570.0 57330.0,12100.0 57500.0,12800.0 57330.0,13500.0 56850.0,14030.0 56180.0,14290.0 55470.0,14200.0 54880.0,13790.0 54540.0,13160.0 54540.0,12440.0 54880.0,11810.0 55470.0,11400.0 56180.0,11310.0"/>
<polygon class="l3d0" points="-74780.0,11570.0 -74300.0,12100.0 -74130.0,12800.0 -74300.0,13500.0 -74780.0,14030.0 -75450.0,14290.0 -76160.0,14200.0 -76760.0,13790.0 -77090.0,13160.0 -77090.0,12440.0 -76760.0,11810.0 -76160.0,11400.0 -75450.0,11310.0"/>
<polygon class="l3d0" points="-80780.0,11570.0 -80300.0,12100.0 -80130.0,12800.0 -80300.0,13500.0 -80780.0,14030.0 -81450.0,14290.0 -82160.0,14200.0 -82760.0,13790.0 -83090.0,13160.0 -83090.0,12440.0 -82760.0,11810.0 -82160.0,11400.0 -81450.0,11310.0"/>
<polygon class="l3d0" points="-68780.0,11570.0 -68300.0,12100.0 -68130.0,12800.0 -68300.0,13500.0 -68780.0,14030.0 -69450.0,14290.0 -70160.0,14200.0 -70760.0,13790.0 -71090.0,13160.0 -71090.0,12440.0 -70760.0,11810.0 -70160.0,11400.0 -69450.0,11310.0"/>
<polygon class="l3d0" points="-62780.0,11570.0 -62300.0,12100.0 -62130.0,12800.0 -62300.0,13500.0 -62780.0,14030.0 -63450.0,14290.0 -64160.0,14200.0 -64760.0,13790.0 -65090.0,13160.0 -65090.0,12440.0 -64760.0,11810.0 -64160.0,11400.0 -63450.0,11310.0"/>
<polygon class="l3d0" points="76160.0,11400.0 76760.0,11810.0 77090.0,12440.0 77090.0,13160.0 76760.0,13790.0 76160.0,14200.0 75450.0,14290.0 74780.0,14030.0 74300.0,13500.0 74130.0,12800.0 74300.0,12100.0 74780.0,11570.0 75450.0,11310.0"/>
<polygon class="l3d0" points="70160.0,11400.0 70760.0,11810.0 71090.0,12440.0 71090.0,13160.0 70760.0,13790.0 70160.0,14200.0 69450.0,14290.0 68780.0,14030.0 68300.0,13500.0 68130.0,12800.0 68300.0,12100.0 68780.0,11570.0 69450.0,11310.0"/>
<polygon class="l3d0" points="63980.0,11380.0 64160.0,11400.0 64320.0,11510.0 64480.0,11570.0 64600.0,11700.0 64760.0,11810.0 64850.0,11970.0 64960.0,12100.0 65000.0,12270.0 65090.0,12440.0 65090.0,12640.0 65130.0,12800.0 65090.0,12960.0 65090.0,13160.0 65000.0,13330.0 64960.0,13500.0 64850.0,13630.0 64760.0,13790.0 64610.0,13890.0 64480.0,14030.0 64320.0,14090.0 64160.0,14200.0 63980.0,14220.0 63810.0,14290.0 63630.0,14270.0 63450.0,14290.0 63280.0,14220.0 63100.0,14200.0 62950.0,14100.0 62780.0,14030.0 62650.0,13890.0 62510.0,13790.0 62430.0,13650.0 62300.0,13500.0 62260.0,13320.0 62170.0,13160.0 62170.0,12960.0 62130.0,12800.0 62170.0,12640.0 62170.0,12440.0 62260.0,12280.0 62300.0,12100.0 62430.0,11950.0 62510.0,11810.0 62650.0,11710.0 62780.0,11570.0 62950.0,11500.0 63100.0,11400.0 63280.0,11380.0 63450.0,11310.0 63630.0,11330.0 63810.0,11310.0"/>
<polygon class="l3d0" points="35850.0,11570.0 36330.0,12100.0 36500.0,12800.0 36330.0,13500.0 35850.0,14030.0 35180.0,14290.0 34470.0,14200.0 33880.0,13790.0 33540.0,13160.0 33540.0,12440.0 33880.0,11810.0 34470.0,11400.0 35180.0,11310.0"/>
<polygon class="l3d0" points="82250.0,11430.0 82810.0,11880.0 83110.0,12530.0 83060.0,13250.0 82690.0,13860.0 82080.0,14230.0 81360.0,14280.0 80710.0,13980.0 80260.0,13410.0 80140.0,12710.0 80350.0,12020.0 80860.0,11520.0 81540.0,11300.0"/>
<polygon class="l3d0" points="-114210.0,7210.0 -113780.0,7780.0 -113670.0,8490.0 -113900.0,9170.0 -114420.0,9670.0 -115110.0,9870.0 -115810.0,9730.0 -116360.0,9270.0 -116640.0,8610.0 -116590.0,7890.0 -116200.0,7290.0 -115580.0,6930.0 -114860.0,6900.0"/>
<polygon class="l3d0" points="115670.0,6960.0 116270.0,7350.0 116610.0,7980.0 116630.0,8700.0 116310.0,9340.0 115730.0,9760.0 115010.0,9860.0 114340.0,9620.0 113850.0,9100.0 113660.0,8400.0 113820.0,7700.0 114290.0,7150.0 114950.0,6890.0"/>
<polygon class="l3d0" points="117560.0,1580.0 118070.0,2080.0 118290.0,2770.0 118170.0,3480.0 117730.0,4040.0 117070.0,4340.0 116360.0,4300.0 115740.0,3940.0 115360.0,3330.0 115320.0,2610.0 115610.0,1950.0 116170.0,1510.0 116870.0,1370.0"/>
<polygon class="l3d0" points="-116090.0,1550.0 -115550.0,2030.0 -115300.0,2700.0 -115390.0,3410.0 -115810.0,4000.0 -116440.0,4330.0 -117160.0,4320.0 -117800.0,3980.0 -118200.0,3390.0 -118280.0,2680.0 -118020.0,2010.0 -117480.0,1540.0 -116780.0,1370.0"/>
<polygon class="l3d0" points="34920.0,-910.0 35340.0,-540.0 35500.0,0.0 35340.0,540.0 34920.0,910.0 34360.0,990.0 33850.0,760.0 33540.0,280.0 33540.0,-280.0 33850.0,-760.0 34360.0,-990.0"/>
<polygon class="l3d0" points="41920.0,-910.0 42340.0,-540.0 42500.0,0.0 42340.0,540.0 41920.0,910.0 41360.0,990.0 40850.0,760.0 40540.0,280.0 40540.0,-280.0 40850.0,-760.0 41360.0,-990.0"/>
<polygon class="l3d0" points="-33850.0,-760.0 -33540.0,-280.0 -33540.0,280.0 -33850.0,760.0 -34360.0,990.0 -34920.0,910.0 -35340.0,540.0 -35500.0,0.0 -35340.0,-540.0 -34920.0,-910.0 -34360.0,-990.0"/>
<polygon class="l3d0" points="-40850.0,-760.0 -40540.0,-280.0 -40540.0,280.0 -40850.0,760.0 -41360.0,990.0 -41920.0,910.0 -42340.0,540.0 -42500.0,0.0 -42340.0,-540.0 -41920.0,-910.0 -41360.0,-990.0"/>
<polygon class="l3d0" points="-116360.0,-4300.0 -115740.0,-3940.0 -115360.0,-3330.0 -115320.0,-2610.0 -115610.0,-1950.0 -116170.0,-1510.0 -116870.0,-1370.0 -117560.0,-1580.0 -118070.0,-2080.0 -118290.0,-2770.0 -118170.0,-3480.0 -117730.0,-4040.0 -117070.0,-4340.0"/>
<polygon class="l3d0" points="117160.0,-4320.0 117800.0,-3980.0 118200.0,-3390.0 118280.0,-2680.0 118020.0,-2010.0 117480.0,-1540.0 116780.0,-1370.0 116090.0,-1550.0 115550.0,-2030.0 115300.0,-2700.0 115390.0,-3410.0 115810.0,-4000.0 116440.0,-4330.0"/>
<polygon class="l3d0" points="-114340.0,-9620.0 -113850.0,-9100.0 -113660.0,-8400.0 -113820.0,-7700.0 -114290.0,-7150.0 -114950.0,-6890.0 -115670.0,-6960.0 -116270.0,-7350.0 -116610.0,-7980.0 -116630.0,-8700.0 -116310.0,-9340.0 -115730.0,-9760.0 -115010.0,-9860.0"/>
<polygon class="l3d0" points="115810.0,-9730.0 116360.0,-9270.0 116640.0,-8610.0 116590.0,-7890.0 116200.0,-7290.0 115580.0,-6930.0 114860.0,-6900.0 114210.0,-7210.0 113780.0,-7780.0 113670.0,-8490.0 113900.0,-9170.0 114420.0,-9670.0 115110.0,-9870.0"/>
<polygon class="l3d0" points="-80710.0,-13980.0 -80260.0,-13410.0 -80140.0,-12710.0 -80350.0,-12020.0 -80860.0,-11520.0 -81540.0,-11300.0 -82250.0,-11430.0 -82810.0,-11880.0 -83110.0,-12530.0 -83060.0,-13250.0 -82690.0,-13860.0 -82080.0,-14230.0 -81360.0,-14280.0"/>
<polygon class="l3d0" points="-62780.0,-14030.0 -62300.0,-13500.0 -62130.0,-12800.0 -62300.0,-12100.0 -62780.0,-11570.0 -63450.0,-11310.0 -64160.0,-11400.0 -64760.0,-11810.0 -65090.0,-12440.0 -65090.0,-13160.0 -64760.0,-13790.0 -64160.0,-14200.0 -63450.0,-14290.0"/>
<polygon class="l3d0" points="56850.0,-14030.0 57330.0,-13500.0 57500.0,-12800.0 57330.0,-12100.0 56850.0,-11570.0 56180.0,-11310.0 55470.0,-11400.0 54880.0,-11810.0 54540.0,-12440.0 54540.0,-13160.0 54880.0,-13790.0 55470.0,-14200.0 56180.0,-14290.0"/>
<polygon class="l3d0" points="-55650.0,-14220.0 -55470.0,-14200.0 -55320.0,-14100.0 -55150.0,-14030.0 -55020.0,-13890.0 -54880.0,-13790.0 -54800.0,-13650.0 -54670.0,-13500.0 -54630.0,-13320.0 -54540.0,-13160.0 -54540.0,-12960.0 -54500.0,-12800.0 -54540.0,-12640.0 -54540.0,-12440.0 -54630.0,-12280.0 -54670.0,-12100.0 -54790.0,-11970.0 -54880.0,-11810.0 -55020.0,-11710.0 -55150.0,-11570.0 -55320.0,-11500.0 -55470.0,-11400.0 -55650.0,-11380.0 -55820.0,-11310.0 -56000.0,-11330.0 -56180.0,-11310.0 -56350.0,-11380.0 -56530.0,-11400.0 -56680.0,-11500.0 -56850.0,-11570.0 -56980.0,-11710.0 -57120.0,-11810.0 -57210.0,-11970.0 -57330.0,-12100.0 -57370.0,-12280.0 -57460.0,-12440.0 -57460.0,-12640.0 -57500.0,-12800.0 -57460.0,-12960.0 -57460.0,-13160.0 -57370.0,-13320.0 -57330.0,-13500.0 -57200.0,-13650.0 -57120.0,-13790.0 -56980.0,-13890.0 -56850.0,-14030.0 -56680.0,-14100.0 -56530.0,-14200.0 -56350.0,-14220.0 -56180.0,-14290.0 -56000.0,-14270.0 -55820.0,-14290.0"/>
<polygon class="l3d0" points="76160.0,-14200.0 76760.0,-13790.0 77090.0,-13160.0 77090.0,-12440.0 76760.0,-11810.0 76160.0,-11400.0 75450.0,-11310.0 74780.0,-11570.0 74300.0,-12100.0 74130.0,-12800.0 74300.0,-13500.0 74780.0,-14030.0 75450.0,-14290.0"/>
<polygon class="l3d0" points="35850.0,-14030.0 36330.0,-13500.0 36500.0,-12800.0 36330.0,-12100.0 35850.0,-11570.0 35180.0,-11310.0 34470.0,-11400.0 33880.0,-11810.0 33540.0,-12440.0 33540.0,-13160.0 33880.0,-13790.0 34470.0,-14200.0 35180.0,-14290.0"/>
<polygon class="l3d0" points="-41470.0,-14200.0 -40880.0,-13790.0 -40540.0,-13160.0 -40540.0,-12440.0 -40880.0,-11810.0 -41470.0,-11400.0 -42180.0,-11310.0 -42850.0,-11570.0 -43330.0,-12100.0 -43500.0,-12800.0 -43330.0,-13500.0 -42850.0,-14030.0 -42180.0,-14290.0"/>
<polygon class="l3d0" points="49850.0,-14030.0 50330.0,-13500.0 50500.0,-12800.0 50330.0,-12100.0 49850.0,-11570.0 49180.0,-11310.0 48470.0,-11400.0 47880.0,-11810.0 47540.0,-12440.0 47540.0,-13160.0 47880.0,-13790.0 48470.0,-14200.0 49180.0,-14290.0"/>
<polygon class="l3d0" points="-48470.0,-14200.0 -47880.0,-13790.0 -47540.0,-13160.0 -47540.0,-12440.0 -47880.0,-11810.0 -48470.0,-11400.0 -49180.0,-11310.0 -49850.0,-11570.0 -50330.0,-12100.0 -50500.0,-12800.0 -50330.0,-13500.0 -49850.0,-14030.0 -49180.0,-14290.0"/>
<polygon class="l3d0" points="-34470.0,-14200.0 -33880.0,-13790.0 -33540.0,-13160.0 -33540.0,-12440.0 -33880.0,-11810.0 -34470.0,-11400.0 -35180.0,-11310.0 -35850.0,-11570.0 -36330.0,-12100.0 -36500.0,-12800.0 -36330.0,-13500.0 -35850.0,-14030.0 -35180.0,-14290.0"/>
<polygon class="l3d0" points="82160.0,-14200.0 82760.0,-13790.0 83090.0,-13160.0 83090.0,-12440.0 82760.0,-11810.0 82160.0,-11400.0 81450.0,-11310.0 80780.0,-11570.0 80300.0,-12100.0 80130.0,-12800.0 80300.0,-13500.0 80780.0,-14030.0 81450.0,-14290.0"/>
<polygon class="l3d0" points="-68780.0,-14030.0 -68300.0,-13500.0 -68130.0,-12800.0 -68300.0,-12100.0 -68780.0,-11570.0 -69450.0,-11310.0 -70160.0,-11400.0 -70760.0,-11810.0 -71090.0,-12440.0 -71090.0,-13160.0 -70760.0,-13790.0 -70160.0,-14200.0 -69450.0,-14290.0"/>
<polygon class="l3d0" points="63980.0,-14220.0 64160.0,-14200.0 64320.0,-14090.0 64480.0,-14030.0 64600.0,-13900.0 64760.0,-13790.0 64850.0,-13630.0 64960.0,-13500.0 65000.0,-13330.0 65090.0,-13160.0 65090.0,-12960.0 65130.0,-12800.0 65090.0,-12640.0 65090.0,-12440.0 65000.0,-12270.0 64960.0,-12100.0 64850.0,-11970.0 64760.0,-11810.0 64610.0,-11710.0 64480.0,-11570.0 64320.0,-11510.0 64160.0,-11400.0 63980.0,-11380.0 63810.0,-11310.0 63630.0,-11330.0 63450.0,-11310.0 63280.0,-11380.0 63100.0,-11400.0 62950.0,-11500.0 62780.0,-11570.0 62650.0,-11710.0 62510.0,-11810.0 62420.0,-11970.0 62300.0,-12100.0 62260.0,-12280.0 62170.0,-12440.0 62170.0,-12640.0 62130.0,-12800.0 62170.0,-12960.0 62170.0,-13160.0 62260.0,-13320.0 62300.0,-13500.0 62430.0,-13650.0 62510.0,-13790.0 62650.0,-13890.0 62780.0,-14030.0 62950.0,-14100.0 63100.0,-14200.0 63280.0,-14220.0 63450.0,-14290.0 63630.0,-14270.0 63810.0,-14290.0"/>
<polygon class="l3d0" points="42850.0,-14030.0 43330.0,-13500.0 43500.0,-12800.0 43330.0,-12100.0 42850.0,-11570.0 42180.0,-11310.0 41470.0,-11400.0 40880.0,-11810.0 40540.0,-12440.0 40540.0,-13160.0 40880.0,-13790.0 41470.0,-14200.0 42180.0,-14290.0"/>
<polygon class="l3d0" points="70160.0,-14200.0 70760.0,-13790.0 71090.0,-13160.0 71090.0,-12440.0 70760.0,-11810.0 70160.0,-11400.0 69450.0,-11310.0 68780.0,-11570.0 68300.0,-12100.0 68130.0,-12800.0 68300.0,-13500.0 68780.0,-14030.0 69450.0,-14290.0"/>
<polygon class="l3d0" points="-74780.0,-14030.0 -74300.0,-13500.0 -74130.0,-12800.0 -74300.0,-12100.0 -74780.0,-11570.0 -75450.0,-11310.0 -76160.0,-11400.0 -76760.0,-11810.0 -77090.0,-12440.0 -77090.0,-13160.0 -76760.0,-13790.0 -76160.0,-14200.0 -75450.0,-14290.0"/>
<polygon class="l3d0" points="112940.0,-14390.0 113390.0,-13830.0 113540.0,-13130.0 113340.0,-12440.0 112850.0,-11920.0 112170.0,-11690.0 111460.0,-11800.0 110880.0,-12230.0 110570.0,-12880.0 110600.0,-13590.0 110950.0,-14220.0 111560.0,-14600.0 112270.0,-14670.0"/>
<polygon class="l3d0" points="-111470.0,-14570.0 -110890.0,-14150.0 -110570.0,-13510.0 -110590.0,-12790.0 -110940.0,-12160.0 -111540.0,-11770.0 -112260.0,-11700.0 -112920.0,-11970.0 -113380.0,-12520.0 -113540.0,-13220.0 -113350.0,-13910.0 -112860.0,-14440.0 -112180.0,-14680.0"/>
<polygon class="l3d0" points="86810.0,-17830.0 87260.0,-17270.0 87400.0,-16570.0 87190.0,-15880.0 86690.0,-15360.0 86010.0,-15140.0 85300.0,-15260.0 84730.0,-15690.0 84430.0,-16350.0 84460.0,-17060.0 84820.0,-17680.0 85430.0,-18060.0 86150.0,-18120.0"/>
<polygon class="l3d0" points="-85350.0,-18030.0 -84760.0,-17610.0 -84440.0,-16970.0 -84450.0,-16260.0 -84790.0,-15630.0 -85390.0,-15230.0 -86100.0,-15150.0 -86770.0,-15410.0 -87240.0,-15960.0 -87400.0,-16660.0 -87220.0,-17350.0 -86730.0,-17880.0 -86060.0,-18130.0"/>
<polygon class="l3d0" points="-106740.0,-18080.0 -106300.0,-17510.0 -106180.0,-16800.0 -106400.0,-16120.0 -106920.0,-15620.0 -107600.0,-15410.0 -108310.0,-15550.0 -108870.0,-16000.0 -109160.0,-16660.0 -109100.0,-17370.0 -108730.0,-17980.0 -108110.0,-18350.0 -107390.0,-18380.0"/>
<polygon class="l3d0" points="108190.0,-18320.0 108790.0,-17920.0 109130.0,-17290.0 109140.0,-16570.0 108810.0,-15930.0 108220.0,-15510.0 107510.0,-15420.0 106840.0,-15670.0 106360.0,-16200.0 106180.0,-16900.0 106340.0,-17590.0 106810.0,-18140.0 107480.0,-18400.0"/>
<polygon class="l3d0" points="-90270.0,-20360.0 -89770.0,-19840.0 -89580.0,-19150.0 -89730.0,-18450.0 -90190.0,-17900.0 -90850.0,-17620.0 -91570.0,-17690.0 -92170.0,-18070.0 -92520.0,-18700.0 -92550.0,-19420.0 -92230.0,-20060.0 -91660.0,-20490.0 -90950.0,-20600.0"/>
<polygon class="l3d0" points="91740.0,-20450.0 92290.0,-19990.0 92560.0,-19330.0 92500.0,-18610.0 92110.0,-18010.0 91480.0,-17660.0 90760.0,-17640.0 90120.0,-17950.0 89690.0,-18530.0 89590.0,-19240.0 89820.0,-19920.0 90350.0,-20410.0 91040.0,-20600.0"/>
<polygon class="l3d0" points="103220.0,-20530.0 103720.0,-20020.0 103930.0,-19330.0 103800.0,-18630.0 103360.0,-18060.0 102700.0,-17770.0 101980.0,-17820.0 101370.0,-18190.0 101000.0,-18810.0 100960.0,-19520.0 101260.0,-20180.0 101830.0,-20620.0 102530.0,-20740.0"/>
<polygon class="l3d0" points="-101740.0,-20580.0 -101200.0,-20100.0 -100950.0,-19430.0 -101030.0,-18720.0 -101440.0,-18130.0 -102070.0,-17790.0 -102790.0,-17790.0 -103430.0,-18120.0 -103840.0,-18710.0 -103930.0,-19420.0 -103670.0,-20100.0 -103140.0,-20570.0 -102440.0,-20750.0"/>
<polygon class="l3d0" points="97130.0,-21450.0 97760.0,-21100.0 98160.0,-20510.0 98230.0,-19790.0 97970.0,-19120.0 97420.0,-18660.0 96720.0,-18500.0 96030.0,-18680.0 95500.0,-19170.0 95260.0,-19840.0 95350.0,-20560.0 95770.0,-21140.0 96410.0,-21460.0"/>
<polygon class="l3d0" points="-96330.0,-21440.0 -95710.0,-21080.0 -95320.0,-20470.0 -95270.0,-19750.0 -95550.0,-19090.0 -96110.0,-18640.0 -96810.0,-18500.0 -97500.0,-18700.0 -98020.0,-19200.0 -98240.0,-19880.0 -98130.0,-20590.0 -97690.0,-21160.0 -97040.0,-21470.0"/>
</g>
</svg>